<svg width="458" height="600" viewBox="0 0 458 600" fill="none" xmlns="http://www.w3.org/2000/svg">
<path d="M154.24 198C105.74 198 92.7402 262.5 92.7402 305.5C92.7402 352.5 105.74 413 154.24 413C201.74 413 215.74 351.5 215.74 306.5C215.74 262.5 203.74 198 154.24 198ZM154.24 481C56.2402 481 17.7402 377 17.7402 306C17.7402 244.5 50.2402 130 154.24 130C258.24 130 290.74 244.5 290.74 306C290.74 377 252.24 481 154.24 481ZM427.846 135V475H352.846V224H313.346V172.5L427.846 135Z" fill="white"/>
<path d="M154.24 171C114.714 171 91.9781 198.456 80.527 224.894C69.1916 251.064 65.7402 282.025 65.7402 305.5H119.74C119.74 285.975 122.789 263.186 130.078 246.356C137.252 229.794 145.267 225 154.24 225V171ZM65.7402 305.5C65.7402 330.754 69.1323 361.913 80.6208 387.82C92.4672 414.534 115.494 440 154.24 440V386C144.486 386 136.763 381.216 129.985 365.93C122.848 349.837 119.74 327.246 119.74 305.5H65.7402ZM154.24 440C192.792 440 215.652 413.901 227.43 387.693C239.014 361.917 242.74 331.079 242.74 306.5H188.74C188.74 326.921 185.467 349.333 178.175 365.557C171.079 381.349 163.188 386 154.24 386V440ZM242.74 306.5C242.74 282.794 239.605 251.56 228.403 225.192C216.986 198.319 194.164 171 154.24 171V225C163.817 225 171.745 229.931 178.703 246.308C185.875 263.19 188.74 286.206 188.74 306.5H242.74ZM154.24 454C116.606 454 90.2609 434.711 72.1131 405.778C53.4158 375.969 44.7402 337.413 44.7402 306H-9.25977C-9.25977 345.587 1.31465 394.531 26.3673 434.472C51.9695 475.289 93.875 508 154.24 508V454ZM44.7402 306C44.7402 278.966 52.0814 239.88 70.3283 208.515C87.998 178.141 114.314 157 154.24 157V103C90.1663 103 48.2324 139.109 23.6522 181.36C-0.350881 222.62 -9.25977 271.534 -9.25977 306H44.7402ZM154.24 157C194.166 157 220.482 178.141 238.152 208.515C256.399 239.88 263.74 278.966 263.74 306H317.74C317.74 271.534 308.831 222.62 284.828 181.36C260.248 139.109 218.314 103 154.24 103V157ZM263.74 306C263.74 337.413 255.065 375.969 236.367 405.778C218.22 434.711 191.875 454 154.24 454V508C214.606 508 256.511 475.289 282.113 434.472C307.166 394.531 317.74 345.587 317.74 306H263.74ZM427.846 135H454.846V97.746L419.442 109.341L427.846 135ZM427.846 475V502H454.846V475H427.846ZM352.846 475H325.846V502H352.846V475ZM352.846 224H379.846V197H352.846V224ZM313.346 224H286.346V251H313.346V224ZM313.346 172.5L304.942 146.841L286.346 152.932V172.5H313.346ZM400.846 135V475H454.846V135H400.846ZM427.846 448H352.846V502H427.846V448ZM379.846 475V224H325.846V475H379.846ZM352.846 197H313.346V251H352.846V197ZM340.346 224V172.5H286.346V224H340.346ZM321.749 198.159L436.249 160.659L419.442 109.341L304.942 146.841L321.749 198.159Z" fill="black"/>
</svg>
